<?xml version="1.0" encoding="UTF-8" standalone="no"?>
<svg
   xmlns:dc="http://purl.org/dc/elements/1.1/"
   xmlns:cc="http://creativecommons.org/ns#"
   xmlns:rdf="http://www.w3.org/1999/02/22-rdf-syntax-ns#"
   xmlns:svg="http://www.w3.org/2000/svg"
   xmlns="http://www.w3.org/2000/svg"
   xmlns:sodipodi="http://sodipodi.sourceforge.net/DTD/sodipodi-0.dtd"
   xmlns:inkscape="http://www.inkscape.org/namespaces/inkscape"
   version="1.1"
   id="svg2"
   width="81.664024"
   height="81.727394"
   viewBox="0 0 81.664024 81.727394"
   sodipodi:docname="homeButton.svg"
   inkscape:version="1.0.2-2 (e86c870879, 2021-01-15)">
  <metadata
     id="metadata8">
    <rdf:RDF>
      <cc:Work
         rdf:about="">
        <dc:format>image/svg+xml</dc:format>
        <dc:type
           rdf:resource="http://purl.org/dc/dcmitype/StillImage" />
        <dc:title></dc:title>
      </cc:Work>
    </rdf:RDF>
  </metadata>
  <defs
     id="defs6" />
  <sodipodi:namedview
     pagecolor="#ffffff"
     bordercolor="#666666"
     borderopacity="1"
     objecttolerance="10"
     gridtolerance="10"
     guidetolerance="10"
     inkscape:pageopacity="0"
     inkscape:pageshadow="2"
     inkscape:window-width="2400"
     inkscape:window-height="1271"
     id="namedview4"
     showgrid="false"
     showguides="true"
     inkscape:guide-bbox="true"
     inkscape:zoom="2.5238095"
     inkscape:cx="95.26116"
     inkscape:cy="154.58812"
     inkscape:window-x="-9"
     inkscape:window-y="-9"
     inkscape:window-maximized="1"
     inkscape:current-layer="g10" />
  <g
     inkscape:groupmode="layer"
     inkscape:label="Image"
     id="g10"
     transform="translate(20.814308,124.63597)">
    <g
       id="g874">
      <path
         style="fill:#808080;fill-opacity:1;fill-rule:evenodd;stroke:#000000;stroke-width:1.54961;stroke-linecap:round"
         d="m -8.4722626,-43.913367 c -5.4245704,-1.005211 -9.8090584,-5.425839 -11.2030824,-11.295429 -0.385656,-1.623821 -0.393427,-2.288259 -0.341066,-29.164098 l 0.05358,-27.502416 0.465531,-1.3868 c 1.782185,-5.30903 5.446335,-9.02938 10.0534904,-10.20769 1.488373,-0.38066 2.294528,-0.39136 29.4859896,-0.39136 27.654643,0 27.971711,0.004 29.434413,0.40975 5.172968,1.4335 9.262227,6.09497 10.338067,11.78466 0.20684,1.09388 0.26025,6.86519 0.26025,28.121624 v 26.745283 l -0.44693,1.683963 c -1.42066,5.352917 -4.869599,9.229317 -9.656849,10.853721 l -1.584906,0.537788 -27.735849,0.03399 c -21.9981016,0.02696 -28.0227356,-0.01918 -29.1226406,-0.222988 z"
         id="path862" />
      <g
         id="g869"
         transform="translate(-51.537969,-90.983629)"
         style="fill:#eeeeee;fill-opacity:1;stroke:#36393d;stroke-opacity:1">
        <path
           style="fill:#eeeeee;fill-opacity:1;stroke:#36393d;stroke-width:1px;stroke-linecap:butt;stroke-linejoin:miter;stroke-opacity:1"
           d="M 52.027666,34.424833 V -0.92252232 L 71.939363,-19.803828 90.770589,-0.92252232 91.079293,34.424833 Z"
           id="path864"
           sodipodi:nodetypes="cccccc" />
      </g>
    </g>
  </g>
</svg>
