<?xml version="1.0" encoding="UTF-8" standalone="no"?>
<!-- Created with Inkscape (http://www.inkscape.org/) -->

<svg
   width="210mm"
   height="297mm"
   viewBox="0 0 210 297"
   version="1.1"
   id="svg5"
   xml:space="preserve"
   sodipodi:docname="Ships.svg"
   inkscape:export-filename="submarine_2.png"
   inkscape:export-xdpi="127.79"
   inkscape:export-ydpi="127.79"
   inkscape:version="1.2.2 (732a01da63, 2022-12-09)"
   xmlns:inkscape="http://www.inkscape.org/namespaces/inkscape"
   xmlns:sodipodi="http://sodipodi.sourceforge.net/DTD/sodipodi-0.dtd"
   xmlns="http://www.w3.org/2000/svg"
   xmlns:svg="http://www.w3.org/2000/svg"><sodipodi:namedview
     id="namedview7"
     pagecolor="#ffffff"
     bordercolor="#000000"
     borderopacity="0.25"
     inkscape:showpageshadow="2"
     inkscape:pageopacity="0.0"
     inkscape:pagecheckerboard="0"
     inkscape:deskcolor="#d1d1d1"
     inkscape:document-units="mm"
     showgrid="false"
     inkscape:zoom="1.0544998"
     inkscape:cx="248.45904"
     inkscape:cy="348.98063"
     inkscape:window-width="1920"
     inkscape:window-height="1017"
     inkscape:window-x="-8"
     inkscape:window-y="-8"
     inkscape:window-maximized="1"
     inkscape:current-layer="layer1" /><defs
     id="defs2" /><g
     inkscape:label="Ebene 1"
     inkscape:groupmode="layer"
     id="layer1"><path
       style="fill:#4d4d4d;stroke-width:0.251304;stroke:#000000;stroke-opacity:1"
       d="m 22.60232,160.65915 c 7.9e-4,-0.31049 -0.6285,-8.69399 -1.39828,-18.62998 l -1.39961,-18.06543 -1.48717,-1.33732 -1.48717,-1.33731 v -7.07757 -7.07756 l 1.25454,-1.23568 1.25454,-1.23568 v -4.04575 c 0,-2.225137 -0.0749,-7.797637 -0.16636,-12.383307 l -0.16637,-8.33757 -1.21363,-1.60317 -1.21363,-1.60317 v -6.87255 -6.87254 l 1.76296,-1.23038 1.76296,-1.23038 -0.13884,-2.76 c -0.0764,-1.51799 -0.35888,-9.87326 -0.6278,-18.56725 -0.26893,-8.69399 -0.54213,-16.73141 -0.60712,-17.86093 l -0.11816,-2.05367 3.18572,-1.04879 3.18572,-1.04879 1.71394,-1.85299 1.71394,-1.85299 h 2.14518 c 2.04212,0 2.20259,0.0412 3.34001,0.8584 1.14322,0.82132 1.3206,0.86614 4.10724,1.03774 l 2.91241,0.17935 v 3.99006 3.99006 l 1.46037,2.18582 1.46038,2.18583 -0.10911,3.29437 -0.1091,3.29437 2.036,0.67805 2.036,0.67805 -0.006,8.44757 -0.006,8.44757 -1.62476,2.50301 c -0.89361,1.37665 -1.62476,2.77076 -1.62476,3.09801 0,0.32725 0.67746,8.32601 1.50546,17.77503 1.64384,18.75935 1.73978,21.43731 1.33957,37.392177 l -0.16484,6.57194 -3.00628,2.08442 c -1.65345,1.14643 -3.09483,2.1423 -3.20305,2.21303 -0.10823,0.0707 -0.94138,8.03082 -1.85145,17.68908 -0.91007,9.65825 -1.71404,17.92742 -1.78659,18.37592 l -0.13191,0.81545 h -7.26499 -7.26499 z"
       id="path450" /><path
       id="path587"
       style="fill:#4d4d4d;stroke-width:0.264999;stroke:#000000;stroke-opacity:1"
       d="M 89.809505 14.360364 C 89.809505 14.360364 89.677421 14.355863 89.488595 14.401188 C 89.39945 14.391459 89.335116 14.389819 89.335116 14.389819 L 89.335116 14.44718 C 88.670497 14.685062 87.554897 15.58397 87.680436 18.973519 C 87.857846 23.763836 88.21284 28.554098 86.438652 34.76377 C 84.664463 40.973442 82.357578 52.505575 81.470479 66.344271 C 80.58338 80.182966 80.405953 109.10264 80.938212 114.24781 C 81.470472 119.39296 83.067304 128.08629 84.664083 130.74757 C 86.260851 133.40886 87.148372 134.29586 88.567721 134.6507 L 89.157865 134.6507 L 89.157865 134.68015 L 90.577417 134.68015 C 91.996766 134.32531 92.88377 133.43832 94.480538 130.77703 C 96.077316 128.11574 97.674149 119.42242 98.206409 114.27726 C 98.738668 109.1321 98.561241 80.212425 97.674141 66.373726 C 96.787042 52.53503 94.480674 41.002898 92.706486 34.793225 C 90.932298 28.583553 91.286775 23.793292 91.464185 19.002974 C 91.589721 15.613513 90.47413 14.714546 89.809505 14.476636 L 89.809505 14.360364 z " /><path
       id="path611"
       style="fill:#4d4d4d;stroke-width:0.264999;stroke:#000000;stroke-opacity:1"
       d="M 127.38292 15.319995 L 127.10129 15.43265 L 126.86978 15.340149 L 126.87029 15.525151 L 126.75557 15.571143 C 126.25375 16.323869 126.00292 17.076719 125.75201 18.958533 C 125.5011 20.840347 122.74087 45.80552 122.23905 51.827327 C 121.73723 57.849135 121.86257 76.040207 122.11348 82.438379 C 122.36439 88.836549 124.49727 103.01304 124.99909 103.76576 C 125.49573 104.51072 127.08788 104.27357 127.12092 104.26857 L 127.12092 104.28717 C 127.12092 104.28717 128.75179 104.53813 129.25361 103.7854 C 129.75543 103.03268 131.88831 88.85619 132.13922 82.458016 C 132.39013 76.059852 132.51547 57.869289 132.01365 51.847481 C 131.51183 45.825674 128.75159 20.859984 128.50068 18.97817 C 128.24977 17.096356 127.99895 16.343506 127.49713 15.59078 L 127.38241 15.544788 L 127.38292 15.319995 z " /><path
       id="path659"
       style="fill:#4d4d4d;stroke-width:0.264999;stroke:#000000;stroke-opacity:1"
       d="M 163.54041 15.066264 L 163.54041 15.22336 C 163.42562 15.617181 162.22931 19.755518 161.80666 22.798608 C 161.36311 25.992154 161.09697 29.717788 160.74213 41.959713 C 160.38729 54.201635 160.38694 75.22591 160.56436 75.758167 C 160.74178 76.290425 161.09663 76.112667 161.09663 76.112667 L 163.6696 76.0243 L 163.6696 76.017582 L 166.02397 76.098714 C 166.02397 76.098714 166.37882 76.275956 166.55624 75.743697 C 166.73366 75.211441 166.73383 54.187166 166.37899 41.945243 C 166.02415 29.703319 165.75801 25.977685 165.31446 22.784139 C 164.89179 19.740954 163.69543 15.602483 163.58071 15.208891 L 163.58071 15.080733 C 163.58071 15.080733 163.56378 15.140357 163.56263 15.144295 C 163.5609 15.138385 163.54041 15.066264 163.54041 15.066264 z " /><path
       id="path683"
       style="fill:#4d4d4d;stroke-width:0.264999;stroke:#000000;stroke-opacity:1"
       d="M 189.38586 17.05839 C 189.26942 17.056311 189.19465 17.058907 189.19465 17.058907 L 189.19465 17.059941 C 189.03603 17.056306 188.0352 17.046513 187.78957 17.414958 C 187.52344 17.814151 187.65676 18.790068 187.65676 18.790068 L 186.50334 18.878434 L 186.63667 19.544027 C 186.63667 19.544027 187.47947 19.677018 187.43507 20.297986 C 187.39077 20.918952 187.43507 22.471497 187.43507 22.471497 L 187.08005 22.604305 L 187.03561 24.023857 L 187.43507 24.28999 L 187.43507 26.685193 L 187.1245 26.77356 C 187.1245 26.77356 187.07997 32.362275 187.30175 36.797754 C 187.52352 41.233235 188.01126 43.096594 188.01126 43.096594 L 187.39063 43.76167 L 187.34619 45.669047 L 189.29749 45.669047 L 189.29749 45.668014 L 191.10203 45.668014 L 191.05759 43.760636 L 190.43644 43.095044 C 190.43644 43.095044 190.92419 41.232202 191.14596 36.79672 C 191.36774 32.361242 191.32372 26.772526 191.32372 26.772526 L 191.01315 26.684159 L 191.01315 24.288957 L 191.41209 24.022823 L 191.36765 22.603271 L 191.01315 22.470463 C 191.01315 22.470463 191.05745 20.917919 191.01315 20.296952 C 190.96875 19.675985 191.81155 19.542993 191.81155 19.542993 L 191.94436 18.877401 L 190.79146 18.789034 C 190.79146 18.789034 190.92426 17.813118 190.65813 17.413924 C 190.45853 17.114529 189.73515 17.064628 189.38586 17.05839 z " /></g><g
     inkscape:groupmode="layer"
     id="layer2"
     inkscape:label="Ebene 2" /></svg>
